<svg width="281" height="67" viewBox="0 0 281 67" fill="none" xmlns="http://www.w3.org/2000/svg">
<g clip-path="url(#clip0_49_2)">
<rect width="281" height="67" fill="white"/>
<path d="M24.5114 16.5568C24.3977 15.3068 23.892 14.3352 22.9943 13.642C22.108 12.9375 20.8409 12.5852 19.1932 12.5852C18.1023 12.5852 17.1932 12.7273 16.4659 13.0114C15.7386 13.2955 15.1932 13.6875 14.8295 14.1875C14.4659 14.6761 14.2784 15.2386 14.267 15.875C14.2443 16.3977 14.3466 16.858 14.5739 17.2557C14.8125 17.6534 15.1534 18.0057 15.5966 18.3125C16.0511 18.608 16.5966 18.8693 17.233 19.0966C17.8693 19.3239 18.5852 19.5227 19.3807 19.6932L22.3807 20.375C24.108 20.75 25.6307 21.25 26.9489 21.875C28.2784 22.5 29.392 23.2443 30.2898 24.108C31.1989 24.9716 31.8864 25.9659 32.3523 27.0909C32.8182 28.2159 33.0568 29.4773 33.0682 30.875C33.0568 33.0795 32.5 34.9716 31.3977 36.5511C30.2955 38.1307 28.7102 39.3409 26.642 40.1818C24.5852 41.0227 22.1023 41.4432 19.1932 41.4432C16.2727 41.4432 13.7273 41.0057 11.5568 40.1307C9.38636 39.2557 7.69886 37.9261 6.49432 36.142C5.28977 34.358 4.67045 32.1023 4.63636 29.375H12.7159C12.7841 30.5 13.0852 31.4375 13.6193 32.1875C14.1534 32.9375 14.8864 33.5057 15.8182 33.892C16.7614 34.2784 17.8523 34.4716 19.0909 34.4716C20.2273 34.4716 21.1932 34.3182 21.9886 34.0114C22.7955 33.7045 23.4148 33.2784 23.8466 32.733C24.2784 32.1875 24.5 31.5625 24.5114 30.858C24.5 30.1989 24.2955 29.6364 23.8977 29.1705C23.5 28.6932 22.8864 28.2841 22.0568 27.9432C21.2386 27.5909 20.1932 27.267 18.9205 26.9716L15.2727 26.1193C12.25 25.4261 9.86932 24.3068 8.13068 22.7614C6.39205 21.2045 5.52841 19.1023 5.53977 16.4545C5.52841 14.2955 6.10795 12.4034 7.27841 10.7784C8.44886 9.15341 10.0682 7.88636 12.1364 6.97727C14.2045 6.06818 16.5625 5.61364 19.2102 5.61364C21.9148 5.61364 24.2614 6.07386 26.25 6.99432C28.25 7.90341 29.8011 9.18182 30.9034 10.8295C32.0057 12.4773 32.5682 14.3864 32.5909 16.5568H24.5114ZM37.3295 6.09091H47.7784L56.642 27.7045H57.0511L65.9148 6.09091H76.3636V41H68.1477V19.5568H67.858L59.4716 40.7784H54.2216L45.8352 19.4375H45.5455V41H37.3295V6.09091ZM89.1776 41H80.1094L91.8878 6.09091H103.121L114.899 41H105.831L97.6321 14.8864H97.3594L89.1776 41ZM87.9673 27.2614H106.922V33.6705H87.9673V27.2614ZM118.658 41V6.09091H133.078C135.692 6.09091 137.947 6.5625 139.845 7.50568C141.754 8.4375 143.226 9.77841 144.26 11.5284C145.294 13.267 145.811 15.3295 145.811 17.7159C145.811 20.1364 145.283 22.1932 144.226 23.8864C143.169 25.5682 141.669 26.8523 139.726 27.7386C137.783 28.6136 135.482 29.0511 132.822 29.0511H123.703V22.4034H131.254C132.527 22.4034 133.589 22.2386 134.442 21.9091C135.305 21.5682 135.959 21.0568 136.402 20.375C136.845 19.6818 137.067 18.7955 137.067 17.7159C137.067 16.6364 136.845 15.7443 136.402 15.0398C135.959 14.3239 135.305 13.7898 134.442 13.4375C133.578 13.0739 132.516 12.892 131.254 12.892H127.095V41H118.658ZM138.311 25.0455L147.004 41H137.8L129.277 25.0455H138.311ZM149.297 12.9432V6.09091H178.803V12.9432H168.217V41H159.899V12.9432H149.297ZM212.634 6.09091V41H205.474L191.582 20.8523H191.361V41H182.923V6.09091H190.185L203.923 26.2045H204.213V6.09091H212.634ZM217.939 41V6.09091H242.28V12.9432H226.376V20.1023H241.036V26.9716H226.376V34.1477H242.28V41H217.939ZM246.422 12.9432V6.09091H275.928V12.9432H265.342V41H257.024V12.9432H246.422Z" fill="#47A101"/>
<path d="M25.1985 58V47.0909H26.8445V56.5831H31.7876V58H25.1985ZM36.9838 58.1651C36.2168 58.1651 35.5474 57.9893 34.9757 57.6378C34.4039 57.2862 33.96 56.7944 33.644 56.1623C33.3279 55.5302 33.1699 54.7915 33.1699 53.9464C33.1699 53.0977 33.3279 52.3555 33.644 51.7198C33.96 51.0842 34.4039 50.5906 34.9757 50.239C35.5474 49.8874 36.2168 49.7116 36.9838 49.7116C37.7509 49.7116 38.4203 49.8874 38.992 50.239C39.5637 50.5906 40.0076 51.0842 40.3237 51.7198C40.6397 52.3555 40.7978 53.0977 40.7978 53.9464C40.7978 54.7915 40.6397 55.5302 40.3237 56.1623C40.0076 56.7944 39.5637 57.2862 38.992 57.6378C38.4203 57.9893 37.7509 58.1651 36.9838 58.1651ZM36.9892 56.8281C37.4863 56.8281 37.8983 56.6967 38.225 56.4339C38.5517 56.1712 38.7931 55.8214 38.9494 55.3846C39.1092 54.9478 39.1891 54.4666 39.1891 53.9411C39.1891 53.419 39.1092 52.9396 38.9494 52.5028C38.7931 52.0625 38.5517 51.7092 38.225 51.4428C37.8983 51.1765 37.4863 51.0433 36.9892 51.0433C36.4885 51.0433 36.073 51.1765 35.7427 51.4428C35.416 51.7092 35.1728 52.0625 35.013 52.5028C34.8567 52.9396 34.7786 53.419 34.7786 53.9411C34.7786 54.4666 34.8567 54.9478 35.013 55.3846C35.1728 55.8214 35.416 56.1712 35.7427 56.4339C36.073 56.6967 36.4885 56.8281 36.9892 56.8281ZM42.7034 58V47.0909H46.5919C47.4371 47.0909 48.1384 47.2365 48.6959 47.5277C49.257 47.8189 49.676 48.2219 49.953 48.7369C50.23 49.2482 50.3685 49.8395 50.3685 50.5107C50.3685 51.1783 50.2282 51.766 49.9477 52.2738C49.6707 52.7781 49.2517 53.1705 48.6906 53.451C48.1331 53.7315 47.4317 53.8718 46.5866 53.8718H43.6409V52.4549H46.4374C46.9701 52.4549 47.4033 52.3786 47.7371 52.2259C48.0745 52.0732 48.3213 51.8512 48.4775 51.56C48.6338 51.2688 48.7119 50.919 48.7119 50.5107C48.7119 50.0987 48.632 49.7418 48.4722 49.44C48.316 49.1381 48.0692 48.9073 47.7318 48.7475C47.398 48.5842 46.9594 48.5025 46.4161 48.5025H44.3493V58H42.7034ZM48.0887 53.0781L50.784 58H48.909L46.267 53.0781H48.0887ZM54.6246 58.1811C54.1061 58.1811 53.6373 58.0852 53.2183 57.8935C52.7993 57.6982 52.4672 57.4158 52.2222 57.0465C51.9807 56.6772 51.86 56.2244 51.86 55.6882C51.86 55.2266 51.9488 54.8466 52.1263 54.5483C52.3039 54.25 52.5436 54.0138 52.8454 53.8398C53.1473 53.6658 53.4846 53.5344 53.8575 53.4457C54.2304 53.3569 54.6104 53.2894 54.9974 53.2433C55.4875 53.1864 55.8852 53.1403 56.1906 53.1048C56.496 53.0657 56.718 53.0036 56.8564 52.9183C56.9949 52.8331 57.0642 52.6946 57.0642 52.5028V52.4656C57.0642 52.0004 56.9328 51.6399 56.67 51.3842C56.4108 51.1286 56.0237 51.0007 55.5088 51.0007C54.9726 51.0007 54.55 51.1197 54.241 51.3576C53.9356 51.592 53.7243 51.853 53.6072 52.1406L52.1104 51.7997C52.2879 51.3026 52.5471 50.9013 52.8881 50.5959C53.2325 50.2869 53.6285 50.0632 54.0759 49.9247C54.5233 49.7827 54.9939 49.7116 55.4875 49.7116C55.8142 49.7116 56.1604 49.7507 56.5262 49.8288C56.8955 49.9034 57.24 50.0419 57.5596 50.2443C57.8827 50.4467 58.1473 50.7362 58.3532 51.1126C58.5592 51.4854 58.6622 51.9702 58.6622 52.5668V58H57.1068V56.8814H57.0429C56.9399 57.0874 56.7854 57.2898 56.5795 57.4886C56.3735 57.6875 56.1089 57.8526 55.7858 57.984C55.4626 58.1154 55.0756 58.1811 54.6246 58.1811ZM54.9708 56.9027C55.4111 56.9027 55.7876 56.8157 56.1001 56.6417C56.4161 56.4677 56.6558 56.2404 56.8192 55.9599C56.9861 55.6758 57.0695 55.3722 57.0695 55.049V53.9943C57.0127 54.0511 56.9026 54.1044 56.7393 54.1541C56.5795 54.2003 56.3966 54.2411 56.1906 54.2766C55.9846 54.3086 55.784 54.3388 55.5887 54.3672C55.3934 54.392 55.23 54.4134 55.0986 54.4311C54.7897 54.4702 54.5074 54.5359 54.2517 54.6282C53.9996 54.7205 53.7971 54.8537 53.6444 55.0277C53.4953 55.1982 53.4207 55.4254 53.4207 55.7095C53.4207 56.1037 53.5663 56.402 53.8575 56.6044C54.1487 56.8033 54.5198 56.9027 54.9708 56.9027ZM64.8811 47.0909H66.8786L70.3517 55.571H70.4795L73.9525 47.0909H75.95V58H74.384V50.1058H74.2828L71.0654 57.984H69.7657L66.5484 50.1005H66.4472V58H64.8811V47.0909ZM83.3981 54.6069V49.8182H84.9961V58H83.43V56.5831H83.3448C83.1566 57.0199 82.8548 57.3839 82.4393 57.6751C82.0273 57.9627 81.5142 58.1065 80.8999 58.1065C80.3743 58.1065 79.9091 57.9911 79.5043 57.7603C79.103 57.5259 78.7869 57.1797 78.5561 56.7216C78.3288 56.2635 78.2152 55.6971 78.2152 55.0224V49.8182H79.8079V54.8306C79.8079 55.3881 79.9624 55.832 80.2713 56.1623C80.5803 56.4925 80.9815 56.6577 81.4751 56.6577C81.7734 56.6577 82.07 56.5831 82.3647 56.4339C82.663 56.2848 82.9098 56.0593 83.1051 55.7575C83.304 55.4556 83.4016 55.0721 83.3981 54.6069ZM88.7288 47.0909V58H87.1361V47.0909H88.7288ZM94.6907 49.8182V51.0966H90.2216V49.8182H94.6907ZM91.4201 47.858H93.0128V55.5977C93.0128 55.9066 93.0589 56.1392 93.1513 56.2955C93.2436 56.4482 93.3626 56.5529 93.5082 56.6097C93.6573 56.663 93.8189 56.6896 93.9929 56.6896C94.1207 56.6896 94.2326 56.6808 94.3285 56.663C94.4244 56.6452 94.4989 56.631 94.5522 56.6204L94.8398 57.9361C94.7475 57.9716 94.6161 58.0071 94.4457 58.0426C94.2752 58.0817 94.0621 58.103 93.8065 58.1065C93.3874 58.1136 92.9968 58.0391 92.6346 57.8828C92.2724 57.7266 91.9794 57.4851 91.7557 57.1584C91.532 56.8317 91.4201 56.4215 91.4201 55.9279V47.858ZM96.4525 58V49.8182H98.0452V58H96.4525ZM97.2568 48.5558C96.9798 48.5558 96.7419 48.4634 96.5431 48.2788C96.3477 48.0906 96.2501 47.8668 96.2501 47.6076C96.2501 47.3448 96.3477 47.1211 96.5431 46.9364C96.7419 46.7482 96.9798 46.6541 97.2568 46.6541C97.5338 46.6541 97.77 46.7482 97.9653 46.9364C98.1642 47.1211 98.2636 47.3448 98.2636 47.6076C98.2636 47.8668 98.1642 48.0906 97.9653 48.2788C97.77 48.4634 97.5338 48.5558 97.2568 48.5558ZM101.781 53.142V58H100.188V47.0909H101.759V51.1499H101.86C102.052 50.7095 102.345 50.3597 102.739 50.1005C103.134 49.8413 103.648 49.7116 104.284 49.7116C104.845 49.7116 105.335 49.8271 105.754 50.0579C106.177 50.2887 106.504 50.6332 106.734 51.0913C106.969 51.5458 107.086 52.114 107.086 52.7958V58H105.493V52.9876C105.493 52.3874 105.339 51.9222 105.03 51.592C104.721 51.2582 104.291 51.0913 103.741 51.0913C103.364 51.0913 103.027 51.1712 102.729 51.331C102.434 51.4908 102.201 51.7251 102.031 52.0341C101.864 52.3395 101.781 52.7088 101.781 53.142ZM112.658 58.1651C111.891 58.1651 111.221 57.9893 110.65 57.6378C110.078 57.2862 109.634 56.7944 109.318 56.1623C109.002 55.5302 108.844 54.7915 108.844 53.9464C108.844 53.0977 109.002 52.3555 109.318 51.7198C109.634 51.0842 110.078 50.5906 110.65 50.239C111.221 49.8874 111.891 49.7116 112.658 49.7116C113.425 49.7116 114.094 49.8874 114.666 50.239C115.238 50.5906 115.681 51.0842 115.998 51.7198C116.314 52.3555 116.472 53.0977 116.472 53.9464C116.472 54.7915 116.314 55.5302 115.998 56.1623C115.681 56.7944 115.238 57.2862 114.666 57.6378C114.094 57.9893 113.425 58.1651 112.658 58.1651ZM112.663 56.8281C113.16 56.8281 113.572 56.6967 113.899 56.4339C114.225 56.1712 114.467 55.8214 114.623 55.3846C114.783 54.9478 114.863 54.4666 114.863 53.9411C114.863 53.419 114.783 52.9396 114.623 52.5028C114.467 52.0625 114.225 51.7092 113.899 51.4428C113.572 51.1765 113.16 51.0433 112.663 51.0433C112.162 51.0433 111.747 51.1765 111.417 51.4428C111.09 51.7092 110.847 52.0625 110.687 52.5028C110.531 52.9396 110.452 53.419 110.452 53.9411C110.452 54.4666 110.531 54.9478 110.687 55.3846C110.847 55.8214 111.09 56.1712 111.417 56.4339C111.747 56.6967 112.162 56.8281 112.663 56.8281ZM118.249 61.0682V49.8182H119.805V51.1445H119.938C120.03 50.9741 120.163 50.777 120.337 50.5533C120.511 50.3295 120.753 50.1342 121.062 49.9673C121.371 49.7969 121.779 49.7116 122.287 49.7116C122.948 49.7116 123.537 49.8786 124.055 50.2124C124.574 50.5462 124.981 51.0273 125.275 51.6559C125.574 52.2844 125.723 53.0408 125.723 53.9251C125.723 54.8093 125.575 55.5675 125.281 56.1996C124.986 56.8281 124.581 57.3129 124.066 57.6538C123.551 57.9911 122.964 58.1598 122.303 58.1598C121.806 58.1598 121.399 58.0763 121.083 57.9094C120.771 57.7425 120.526 57.5472 120.348 57.3235C120.171 57.0998 120.034 56.9009 119.938 56.7269H119.842V61.0682H118.249ZM119.81 53.9091C119.81 54.4844 119.894 54.9886 120.06 55.4219C120.227 55.8551 120.469 56.1942 120.785 56.4393C121.101 56.6808 121.488 56.8015 121.946 56.8015C122.422 56.8015 122.82 56.6754 123.139 56.4233C123.459 56.1676 123.7 55.8214 123.864 55.3846C124.031 54.9478 124.114 54.456 124.114 53.9091C124.114 53.3693 124.032 52.8846 123.869 52.4549C123.709 52.0252 123.468 51.6861 123.145 51.4375C122.825 51.1889 122.426 51.0646 121.946 51.0646C121.484 51.0646 121.094 51.1836 120.774 51.4215C120.458 51.6594 120.218 51.9915 120.055 52.4176C119.892 52.8437 119.81 53.3409 119.81 53.9091ZM137.555 49.9567C137.498 49.4524 137.263 49.0618 136.852 48.7848C136.44 48.5043 135.921 48.364 135.296 48.364C134.849 48.364 134.462 48.435 134.135 48.5771C133.808 48.7156 133.554 48.9073 133.373 49.1523C133.196 49.3938 133.107 49.669 133.107 49.978C133.107 50.2372 133.167 50.4609 133.288 50.6491C133.412 50.8374 133.574 50.9954 133.773 51.1232C133.975 51.2475 134.192 51.3523 134.423 51.4375C134.653 51.5192 134.875 51.5866 135.088 51.6399L136.154 51.9169C136.502 52.0021 136.859 52.1175 137.224 52.2631C137.59 52.4087 137.929 52.6005 138.242 52.8384C138.554 53.0763 138.806 53.3711 138.998 53.7227C139.194 54.0742 139.291 54.495 139.291 54.9851C139.291 55.603 139.131 56.1516 138.812 56.631C138.496 57.1104 138.036 57.4886 137.432 57.7656C136.832 58.0426 136.106 58.1811 135.254 58.1811C134.437 58.1811 133.73 58.0515 133.134 57.7923C132.537 57.533 132.07 57.1655 131.733 56.6896C131.395 56.2102 131.209 55.642 131.173 54.9851H132.825C132.857 55.3793 132.984 55.7077 133.208 55.9705C133.435 56.2298 133.725 56.4233 134.076 56.5511C134.431 56.6754 134.82 56.7376 135.243 56.7376C135.708 56.7376 136.122 56.6648 136.484 56.5192C136.85 56.37 137.137 56.1641 137.347 55.9013C137.556 55.6349 137.661 55.3242 137.661 54.9691C137.661 54.646 137.569 54.3814 137.384 54.1754C137.203 53.9695 136.956 53.799 136.644 53.6641C136.335 53.5291 135.985 53.4102 135.594 53.3072L134.305 52.9556C133.432 52.7177 132.739 52.3679 132.228 51.9062C131.72 51.4446 131.466 50.8338 131.466 50.0739C131.466 49.4453 131.637 48.8967 131.978 48.4279C132.319 47.9592 132.78 47.5952 133.363 47.3359C133.945 47.0732 134.602 46.9418 135.333 46.9418C136.072 46.9418 136.724 47.0714 137.288 47.3306C137.857 47.5898 138.304 47.9467 138.631 48.4013C138.957 48.8523 139.128 49.3707 139.142 49.9567H137.555ZM141.13 58V49.8182H142.659V51.1499H142.76C142.931 50.6989 143.209 50.3473 143.597 50.0952C143.984 49.8395 144.447 49.7116 144.987 49.7116C145.534 49.7116 145.992 49.8395 146.361 50.0952C146.734 50.3509 147.009 50.7024 147.187 51.1499H147.272C147.467 50.7131 147.778 50.3651 148.204 50.1058C148.63 49.843 149.138 49.7116 149.728 49.7116C150.47 49.7116 151.075 49.9442 151.544 50.4094C152.016 50.8746 152.252 51.576 152.252 52.5135V58H150.66V52.6626C150.66 52.1087 150.509 51.7074 150.207 51.4588C149.905 51.2102 149.545 51.0859 149.126 51.0859C148.607 51.0859 148.204 51.2457 147.916 51.5653C147.629 51.8814 147.485 52.288 147.485 52.7852V58H145.898V52.5614C145.898 52.1175 145.759 51.7607 145.482 51.4908C145.205 51.2209 144.845 51.0859 144.401 51.0859C144.099 51.0859 143.82 51.1658 143.565 51.3256C143.312 51.4819 143.108 51.7003 142.952 51.9808C142.799 52.2614 142.723 52.5863 142.723 52.9556V58H141.13ZM156.768 58.1811C156.25 58.1811 155.781 58.0852 155.362 57.8935C154.943 57.6982 154.611 57.4158 154.366 57.0465C154.124 56.6772 154.004 56.2244 154.004 55.6882C154.004 55.2266 154.092 54.8466 154.27 54.5483C154.447 54.25 154.687 54.0138 154.989 53.8398C155.291 53.6658 155.628 53.5344 156.001 53.4457C156.374 53.3569 156.754 53.2894 157.141 53.2433C157.631 53.1864 158.029 53.1403 158.334 53.1048C158.64 53.0657 158.862 53.0036 159 52.9183C159.138 52.8331 159.208 52.6946 159.208 52.5028V52.4656C159.208 52.0004 159.076 51.6399 158.814 51.3842C158.554 51.1286 158.167 51.0007 157.652 51.0007C157.116 51.0007 156.694 51.1197 156.385 51.3576C156.079 51.592 155.868 51.853 155.751 52.1406L154.254 51.7997C154.431 51.3026 154.691 50.9013 155.032 50.5959C155.376 50.2869 155.772 50.0632 156.219 49.9247C156.667 49.7827 157.137 49.7116 157.631 49.7116C157.958 49.7116 158.304 49.7507 158.67 49.8288C159.039 49.9034 159.384 50.0419 159.703 50.2443C160.026 50.4467 160.291 50.7362 160.497 51.1126C160.703 51.4854 160.806 51.9702 160.806 52.5668V58H159.25V56.8814H159.186C159.083 57.0874 158.929 57.2898 158.723 57.4886C158.517 57.6875 158.252 57.8526 157.929 57.984C157.606 58.1154 157.219 58.1811 156.768 58.1811ZM157.114 56.9027C157.555 56.9027 157.931 56.8157 158.244 56.6417C158.56 56.4677 158.799 56.2404 158.963 55.9599C159.13 55.6758 159.213 55.3722 159.213 55.049V53.9943C159.156 54.0511 159.046 54.1044 158.883 54.1541C158.723 54.2003 158.54 54.2411 158.334 54.2766C158.128 54.3086 157.928 54.3388 157.732 54.3672C157.537 54.392 157.374 54.4134 157.242 54.4311C156.933 54.4702 156.651 54.5359 156.395 54.6282C156.143 54.7205 155.941 54.8537 155.788 55.0277C155.639 55.1982 155.564 55.4254 155.564 55.7095C155.564 56.1037 155.71 56.402 156.001 56.6044C156.292 56.8033 156.663 56.9027 157.114 56.9027ZM162.927 58V49.8182H164.467V51.1179H164.552C164.701 50.6776 164.964 50.3313 165.34 50.0792C165.72 49.8235 166.15 49.6957 166.629 49.6957C166.729 49.6957 166.846 49.6992 166.981 49.7063C167.119 49.7134 167.228 49.7223 167.306 49.733V51.2564C167.242 51.2386 167.128 51.2191 166.965 51.1978C166.801 51.1729 166.638 51.1605 166.475 51.1605C166.098 51.1605 165.763 51.2404 165.468 51.4002C165.177 51.5565 164.946 51.7749 164.775 52.0554C164.605 52.3324 164.52 52.6484 164.52 53.0036V58H162.927ZM172.987 49.8182V51.0966H168.517V49.8182H172.987ZM169.716 47.858H171.309V55.5977C171.309 55.9066 171.355 56.1392 171.447 56.2955C171.54 56.4482 171.658 56.5529 171.804 56.6097C171.953 56.663 172.115 56.6896 172.289 56.6896C172.417 56.6896 172.528 56.6808 172.624 56.663C172.72 56.6452 172.795 56.631 172.848 56.6204L173.136 57.9361C173.043 57.9716 172.912 58.0071 172.742 58.0426C172.571 58.0817 172.358 58.103 172.102 58.1065C171.683 58.1136 171.293 58.0391 170.93 57.8828C170.568 57.7266 170.275 57.4851 170.052 57.1584C169.828 56.8317 169.716 56.4215 169.716 55.9279V47.858ZM179.767 58H178.02L181.946 47.0909H183.848L187.774 58H186.026L182.942 49.0724H182.857L179.767 58ZM180.06 53.728H185.728V55.1129H180.06V53.728ZM192.52 61.2386C191.87 61.2386 191.31 61.1534 190.842 60.983C190.377 60.8125 189.997 60.587 189.702 60.3065C189.407 60.0259 189.187 59.7188 189.041 59.3849L190.41 58.8203C190.506 58.9766 190.634 59.1417 190.794 59.3157C190.957 59.4933 191.177 59.6442 191.454 59.7685C191.735 59.8928 192.095 59.9549 192.536 59.9549C193.139 59.9549 193.638 59.8075 194.032 59.5128C194.427 59.2216 194.624 58.7564 194.624 58.1172V56.5085H194.522C194.427 56.6825 194.288 56.8761 194.107 57.0891C193.929 57.3022 193.684 57.4869 193.372 57.6431C193.059 57.7994 192.653 57.8775 192.152 57.8775C191.506 57.8775 190.923 57.7266 190.405 57.4247C189.89 57.1193 189.482 56.6701 189.18 56.0771C188.881 55.4805 188.732 54.7472 188.732 53.8771C188.732 53.0071 188.88 52.2614 189.174 51.6399C189.473 51.0185 189.881 50.5426 190.4 50.2124C190.918 49.8786 191.506 49.7116 192.163 49.7116C192.671 49.7116 193.081 49.7969 193.393 49.9673C193.706 50.1342 193.949 50.3295 194.123 50.5533C194.301 50.777 194.437 50.9741 194.533 51.1445H194.65V49.8182H196.211V58.1811C196.211 58.8842 196.048 59.4613 195.721 59.9123C195.394 60.3633 194.952 60.6971 194.395 60.9137C193.841 61.1303 193.216 61.2386 192.52 61.2386ZM192.504 56.5565C192.962 56.5565 193.349 56.4499 193.665 56.2369C193.984 56.0202 194.226 55.7113 194.389 55.31C194.556 54.9052 194.64 54.4205 194.64 53.8558C194.64 53.3054 194.558 52.8207 194.395 52.4016C194.231 51.9826 193.992 51.6559 193.676 51.4215C193.359 51.1836 192.969 51.0646 192.504 51.0646C192.024 51.0646 191.625 51.1889 191.305 51.4375C190.986 51.6825 190.744 52.0163 190.581 52.4389C190.421 52.8615 190.341 53.3338 190.341 53.8558C190.341 54.392 190.423 54.8626 190.586 55.2674C190.749 55.6722 190.991 55.9883 191.31 56.2156C191.634 56.4428 192.031 56.5565 192.504 56.5565ZM198.347 58V49.8182H199.886V51.1179H199.972C200.121 50.6776 200.384 50.3313 200.76 50.0792C201.14 49.8235 201.57 49.6957 202.049 49.6957C202.149 49.6957 202.266 49.6992 202.401 49.7063C202.539 49.7134 202.647 49.7223 202.726 49.733V51.2564C202.662 51.2386 202.548 51.2191 202.385 51.1978C202.221 51.1729 202.058 51.1605 201.895 51.1605C201.518 51.1605 201.183 51.2404 200.888 51.4002C200.597 51.5565 200.366 51.7749 200.195 52.0554C200.025 52.3324 199.94 52.6484 199.94 53.0036V58H198.347ZM204.104 58V49.8182H205.697V58H204.104ZM204.908 48.5558C204.631 48.5558 204.393 48.4634 204.194 48.2788C203.999 48.0906 203.901 47.8668 203.901 47.6076C203.901 47.3448 203.999 47.1211 204.194 46.9364C204.393 46.7482 204.631 46.6541 204.908 46.6541C205.185 46.6541 205.421 46.7482 205.617 46.9364C205.816 47.1211 205.915 47.3448 205.915 47.6076C205.915 47.8668 205.816 48.0906 205.617 48.2788C205.421 48.4634 205.185 48.5558 204.908 48.5558ZM211.286 58.1651C210.494 58.1651 209.812 57.9858 209.24 57.6271C208.672 57.2649 208.235 56.766 207.93 56.1303C207.624 55.4947 207.472 54.7667 207.472 53.9464C207.472 53.1154 207.628 52.3821 207.94 51.7464C208.253 51.1072 208.693 50.6083 209.261 50.2496C209.83 49.891 210.499 49.7116 211.27 49.7116C211.891 49.7116 212.445 49.8271 212.932 50.0579C213.418 50.2852 213.81 50.6048 214.109 51.0167C214.411 51.4286 214.59 51.9098 214.647 52.4602H213.097C213.011 52.0767 212.816 51.7464 212.511 51.4695C212.209 51.1925 211.804 51.054 211.296 51.054C210.852 51.054 210.464 51.1712 210.13 51.4055C209.799 51.6364 209.542 51.9666 209.357 52.3963C209.173 52.8224 209.08 53.3267 209.08 53.9091C209.08 54.5057 209.171 55.0206 209.352 55.4538C209.533 55.8871 209.789 56.2227 210.119 56.4606C210.453 56.6985 210.845 56.8175 211.296 56.8175C211.598 56.8175 211.872 56.7624 212.117 56.6523C212.365 56.5387 212.573 56.3771 212.74 56.1676C212.91 55.9581 213.029 55.706 213.097 55.4112H214.647C214.59 55.9403 214.418 56.4126 214.13 56.8281C213.842 57.2436 213.457 57.5703 212.974 57.8082C212.495 58.0462 211.932 58.1651 211.286 58.1651ZM221.533 54.6069V49.8182H223.131V58H221.565V56.5831H221.48C221.291 57.0199 220.99 57.3839 220.574 57.6751C220.162 57.9627 219.649 58.1065 219.035 58.1065C218.509 58.1065 218.044 57.9911 217.639 57.7603C217.238 57.5259 216.922 57.1797 216.691 56.7216C216.464 56.2635 216.35 55.6971 216.35 55.0224V49.8182H217.943V54.8306C217.943 55.3881 218.097 55.832 218.406 56.1623C218.715 56.4925 219.116 56.6577 219.61 56.6577C219.908 56.6577 220.205 56.5831 220.499 56.4339C220.798 56.2848 221.045 56.0593 221.24 55.7575C221.439 55.4556 221.536 55.0721 221.533 54.6069ZM226.864 47.0909V58H225.271V47.0909H226.864ZM232.825 49.8182V51.0966H228.356V49.8182H232.825ZM229.555 47.858H231.148V55.5977C231.148 55.9066 231.194 56.1392 231.286 56.2955C231.378 56.4482 231.497 56.5529 231.643 56.6097C231.792 56.663 231.954 56.6896 232.128 56.6896C232.256 56.6896 232.367 56.6808 232.463 56.663C232.559 56.6452 232.634 56.631 232.687 56.6204L232.975 57.9361C232.882 57.9716 232.751 58.0071 232.58 58.0426C232.41 58.0817 232.197 58.103 231.941 58.1065C231.522 58.1136 231.132 58.0391 230.769 57.8828C230.407 57.7266 230.114 57.4851 229.89 57.1584C229.667 56.8317 229.555 56.4215 229.555 55.9279V47.858ZM239.77 54.6069V49.8182H241.368V58H239.802V56.5831H239.717C239.529 57.0199 239.227 57.3839 238.811 57.6751C238.399 57.9627 237.886 58.1065 237.272 58.1065C236.746 58.1065 236.281 57.9911 235.876 57.7603C235.475 57.5259 235.159 57.1797 234.928 56.7216C234.701 56.2635 234.587 55.6971 234.587 55.0224V49.8182H236.18V54.8306C236.18 55.3881 236.334 55.832 236.643 56.1623C236.952 56.4925 237.354 56.6577 237.847 56.6577C238.146 56.6577 238.442 56.5831 238.737 56.4339C239.035 56.2848 239.282 56.0593 239.477 55.7575C239.676 55.4556 239.774 55.0721 239.77 54.6069ZM243.508 58V49.8182H245.048V51.1179H245.133C245.282 50.6776 245.545 50.3313 245.921 50.0792C246.301 49.8235 246.731 49.6957 247.21 49.6957C247.31 49.6957 247.427 49.6992 247.562 49.7063C247.7 49.7134 247.809 49.7223 247.887 49.733V51.2564C247.823 51.2386 247.709 51.2191 247.546 51.1978C247.382 51.1729 247.219 51.1605 247.056 51.1605C246.679 51.1605 246.344 51.2404 246.049 51.4002C245.758 51.5565 245.527 51.7749 245.357 52.0554C245.186 52.3324 245.101 52.6484 245.101 53.0036V58H243.508ZM252.498 58.1651C251.692 58.1651 250.998 57.9929 250.416 57.6484C249.837 57.3004 249.389 56.8121 249.073 56.1836C248.761 55.5515 248.604 54.8111 248.604 53.9624C248.604 53.1243 248.761 52.3857 249.073 51.7464C249.389 51.1072 249.83 50.6083 250.394 50.2496C250.962 49.891 251.627 49.7116 252.386 49.7116C252.848 49.7116 253.296 49.788 253.729 49.9407C254.162 50.0934 254.551 50.3331 254.895 50.6598C255.24 50.9865 255.511 51.4109 255.71 51.9329C255.909 52.4513 256.009 53.0817 256.009 53.8239V54.3885H249.505V53.1953H254.448C254.448 52.7763 254.363 52.4052 254.192 52.082C254.022 51.7553 253.782 51.4979 253.473 51.3097C253.168 51.1214 252.809 51.0273 252.397 51.0273C251.95 51.0273 251.559 51.1374 251.225 51.3576C250.895 51.5742 250.639 51.8583 250.458 52.2099C250.281 52.5579 250.192 52.9361 250.192 53.3445V54.2766C250.192 54.8235 250.288 55.2887 250.479 55.6722C250.675 56.0558 250.946 56.3487 251.294 56.5511C251.642 56.75 252.049 56.8494 252.514 56.8494C252.816 56.8494 253.091 56.8068 253.34 56.7216C253.589 56.6328 253.803 56.5014 253.984 56.3274C254.166 56.1534 254.304 55.9386 254.4 55.6829L255.907 55.9545C255.787 56.3984 255.57 56.7873 255.258 57.1211C254.949 57.4513 254.56 57.7088 254.091 57.8935C253.626 58.0746 253.095 58.1651 252.498 58.1651Z" fill="#FF8A00"/>
</g>
<defs>
<clipPath id="clip0_49_2">
<rect width="281" height="67" fill="white"/>
</clipPath>
</defs>
</svg>
