<svg width="157" height="62" viewBox="0 0 157 62" fill="none" xmlns="http://www.w3.org/2000/svg">
<path d="M0.019989 30.82C0.019989 20.97 0.019989 11.11 0.019989 1.26001C0.019989 0.426676 0.446654 0.0100098 1.29999 0.0100098C17.01 0.0100098 32.73 0.0100098 48.44 0.0100098C49.2667 0.0100098 49.68 0.413343 49.68 1.22001C49.68 5.29001 49.68 9.36001 49.68 13.43C49.68 13.61 49.68 13.79 49.68 13.97C49.65 14.56 49.58 14.63 49.01 14.66C48.75 14.67 48.5 14.66 48.24 14.66C38.26 14.66 28.28 14.66 18.29 14.66C17.4833 14.66 17.08 15.07 17.08 15.89C17.08 18.14 17.08 20.39 17.08 22.65C17.08 22.88 17.08 23.11 17.1 23.34C17.12 23.64 17.29 23.81 17.59 23.82C17.87 23.83 18.15 23.84 18.43 23.84C28.36 23.84 38.29 23.84 48.22 23.84C49.87 23.84 49.66 23.93 49.67 25.25C49.67 28.91 49.67 32.57 49.67 36.23C49.67 36.43 49.67 36.64 49.67 36.84C49.64 37.4 49.56 37.48 48.97 37.51C48.71 37.52 48.46 37.51 48.2 37.51C38.24 37.51 28.29 37.51 18.33 37.51C17.4967 37.51 17.08 37.9333 17.08 38.78C17.08 41.19 17.08 43.59 17.08 46C17.08 46.23 17.08 46.46 17.1 46.69C17.12 46.96 17.28 47.11 17.55 47.12C17.83 47.13 18.11 47.13 18.39 47.13C28.4 47.13 38.4 47.13 48.41 47.13C49.25 47.13 49.67 47.55 49.67 48.39C49.67 52.43 49.67 56.48 49.67 60.52C49.67 60.6 49.67 60.67 49.67 60.75C49.67 61.76 49.65 61.78 48.64 61.78C32.77 61.78 16.9 61.78 1.03 61.78C0.0199988 61.78 0 61.76 0 60.74C0 50.76 0 40.78 0 30.79L0.019989 30.82Z" fill="white"/>
<path d="M125.71 0.01C135.54 0.01 145.37 0.01 155.19 0.01C156.73 0.01 156.59 -0.02 156.59 1.45C156.59 5.62 156.59 9.79 156.59 13.96C156.59 15.11 156.59 15.12 155.45 15.12C150.08 15.12 144.7 15.12 139.33 15.12C138.11 15.12 138.14 15.06 138.14 16.28C138.14 27.18 138.09 38.09 138.17 48.99C138.2 52.74 136.62 55.54 133.81 57.77C131.23 59.83 128.22 60.93 124.99 61.48C123.91 61.66 122.82 61.81 121.71 61.79C120.99 61.78 120.92 61.71 120.9 61C120.9 60.74 120.9 60.49 120.9 60.23C120.9 45.62 120.9 31 120.9 16.39C120.9 15 120.95 15.11 119.59 15.11C111.73 15.11 103.88 15.11 96.0196 15.11C95.2129 15.11 94.8096 14.6967 94.8096 13.87C94.8096 9.62 94.8096 5.37 94.8096 1.12C94.8096 0.00999999 94.8195 0 95.9095 0C105.84 0 115.77 0 125.7 0L125.71 0.01Z" fill="white"/>
<path d="M94.7099 32.24C94.8999 31.94 94.8299 31.65 94.8299 31.38C94.8299 28.13 94.8299 24.88 94.8299 21.63C94.8299 21.34 94.6799 20.92 94.9899 20.78C95.3099 20.64 95.4899 21.05 95.6899 21.25C100.87 26.42 106.04 31.6 111.22 36.77C111.67 37.22 111.87 37.68 111.87 38.32C111.85 45.77 111.86 53.21 111.86 60.66C111.86 61.77 111.86 61.77 110.75 61.77C108.4 61.77 106.04 61.76 103.69 61.77C103.13 61.77 102.69 61.66 102.37 61.17C102.29 61.04 102.17 60.94 102.06 60.83C100.03 58.74 97.9899 56.66 95.9799 54.54C93.5699 52 91.1299 49.48 88.7099 46.95C86.4099 44.55 84.1099 42.14 81.8099 39.75C79.3999 37.24 76.9899 34.73 74.5899 32.21C73.4999 31.06 72.3899 29.93 71.2899 28.79C71.1199 28.61 70.9599 28.4 70.6699 28.3C70.4999 28.58 70.5599 28.86 70.5599 29.13C70.5599 31.54 70.5599 33.94 70.5599 36.35C70.5599 36.62 70.6298 36.91 70.4698 37.15C70.1598 37.18 70.0399 36.94 69.8899 36.79C64.6399 31.54 59.3999 26.29 54.1499 21.05C53.7999 20.7 53.6299 20.33 53.6299 19.83C53.6399 13.54 53.6299 7.24003 53.6299 0.950029C53.6299 0.100029 53.6899 0.0300293 54.5499 0.0300293C57.7699 0.0300293 60.9998 0.0300293 64.2198 0.0300293C64.7498 0.0300293 65.1299 0.220029 65.4799 0.610029C67.0199 2.32003 68.5799 4.01003 70.1399 5.70003C72.2299 7.98003 74.3199 10.26 76.4099 12.54C77.6899 13.93 78.9699 15.32 80.2599 16.72C82.5299 19.19 84.7899 21.65 87.0599 24.12C88.5499 25.74 90.0599 27.34 91.5499 28.96C92.4299 29.92 93.3099 30.89 94.1899 31.85C94.3299 32 94.4399 32.18 94.7099 32.25V32.24Z" fill="#27B1B3"/>
<path d="M61.6096 61.7899C56.5996 61.7899 52.5596 57.7199 52.5596 52.6899C52.5596 47.6799 56.6396 43.6199 61.6496 43.6199C66.6296 43.6199 70.7096 47.7299 70.7096 52.7299C70.7096 57.7299 66.6195 61.7899 61.5995 61.7799L61.6096 61.7899Z" fill="#A87D34"/>
</svg>
